# Blender v2.79 (sub 0) OBJ File: ''
# www.blender.org
mtllib console.mtl
o control_panel.001
v 0.000400 0.000647 -0.000319
v -0.000400 0.000647 0.000131
v 0.000400 0.000647 0.000131
v 0.399994 0.690000 0.224924
v -0.399994 0.800055 -0.225096
v -0.399994 0.690000 0.224924
v 0.399994 0.800055 -0.225096
v 0.399994 1.390000 -0.425101
v -0.399994 0.000067 -0.425101
v -0.399994 1.390000 -0.425101
v 0.399994 0.000067 -0.425101
v -0.399994 0.000067 0.224924
v 0.399994 0.000067 0.224924
v -0.399994 1.390000 -0.325094
v 0.399994 1.390000 -0.325094
v -0.000400 0.000647 -0.000319
vt 0.984366 0.643320
vt 0.427366 0.643320
vt 0.427366 0.325031
vt 0.980375 0.325030
vt 0.650615 0.224000
vt 0.609246 0.054841
vt 0.349905 0.054841
vt 0.349905 0.299181
vt 0.872237 0.299181
vt 0.872373 0.261589
vt 0.318563 0.879389
vt 0.318587 0.918724
vt 0.005476 0.918528
vt 0.005476 0.879389
vt 0.348966 0.055771
vt 0.609387 0.055861
vt 0.650869 0.225740
vt 0.873535 0.263562
vt 0.873522 0.301310
vt 0.348881 0.301129
vt 0.318563 0.463900
vt 0.318563 0.645212
vt 0.005476 0.645212
vt 0.005477 0.463900
vt 0.000000 0.000000
vt 0.000000 0.000000
vt 0.000000 0.000000
vt 0.000000 0.000000
vt 0.005477 0.193885
vt 0.318563 0.193885
vt 0.958706 0.655676
vt 0.958706 0.945642
vt 0.601845 0.945642
vt 0.601845 0.655676
vn 0.7519 0.3796 -0.5391
vn 0.3959 -0.7668 -0.5052
vn -0.6406 -0.4234 -0.6406
vn -0.4101 0.8146 -0.4102
vn 0.6431 0.4000 0.6530
vn 0.6375 0.6103 0.4703
vn 0.3405 -0.6409 0.6879
vn 0.3926 0.6946 0.6027
vn -0.3406 0.5951 0.7279
vn -0.6350 -0.6350 0.4399
vn -0.6351 0.3123 0.7064
vn -0.7225 0.4871 0.4907
vn 0.0000 1.0000 0.0000
usemtl None
s 1
f 8/1/1 11/2/2 9/3/3 10/4/4
f 7/5/5 4/6/6 13/7/7 11/8/2 8/9/1 15/10/8
f 15/11/8 8/12/1 10/13/4 14/14/9
f 12/15/10 6/16/11 5/17/12 14/18/9 10/19/4 9/20/3
f 4/21/6 7/22/5 5/23/12 6/24/11
f 1/25/13 16/26/13 2/27/13 3/28/13
f 6/24/11 12/29/10 13/30/7 4/21/6
f 11/31/2 13/32/7 12/33/10 9/34/3
f 7/22/5 15/11/8 14/14/9 5/23/12
