# Blender v2.79 (sub 0) OBJ File: 'tablet.blend'
# www.blender.org
mtllib tablet.mtl
o tablet_Cube
v -0.088455 -0.209514 0.004122
v 0.223174 -0.209514 0.004122
v 0.223174 0.237019 0.004122
v -0.088455 0.237019 0.004122
v -0.088454 -0.209514 -0.003458
v 0.223174 -0.209514 -0.003458
v 0.223174 0.237019 -0.003458
v -0.088455 0.237019 -0.003458
v -0.082414 -0.205038 -0.003532
v 0.217134 -0.205038 -0.003532
v -0.082415 0.232543 -0.003532
v 0.217134 0.232543 -0.003532
v -0.082414 -0.205038 0.002869
v 0.217134 -0.205038 0.002869
v -0.082415 0.232543 0.002869
v 0.217134 0.232543 0.002869
vt 0.468473 0.505062
vt 0.000000 0.505062
vt 0.000000 0.000000
vt 0.468473 0.000000
vt 0.468473 0.000000
vt 0.936947 0.000000
vt 0.927867 0.005062
vt 0.477553 0.005062
vt 0.978982 0.352475
vt 0.990377 0.352475
vt 0.990377 0.704951
vt 0.978982 0.704951
vt 0.959736 0.505062
vt 0.948341 0.505062
vt 0.948341 0.000000
vt 0.959736 0.000000
vt 0.990377 0.352475
vt 0.978982 0.352475
vt 0.978982 0.000000
vt 0.990377 0.000000
vt 0.936947 0.000000
vt 0.948341 0.000000
vt 0.948341 0.505062
vt 0.936947 0.505062
vt 0.978982 0.000000
vt 0.978982 0.494938
vt 0.969359 0.494938
vt 0.969359 0.000000
vt 0.468473 0.505062
vt 0.477553 0.500000
vt 0.936947 0.505062
vt 0.927867 0.500000
vt 0.000000 1.000000
vt 0.000000 0.505062
vt 0.450313 0.505062
vt 0.450313 1.000000
vt 0.959736 0.494938
vt 0.959736 0.000000
vt 0.969359 0.000000
vt 0.969359 0.494938
vt 0.990377 0.338812
vt 0.990377 0.000000
vt 1.000000 0.000000
vt 1.000000 0.338812
vt 0.990377 0.677624
vt 0.990377 0.338812
vt 1.000000 0.338812
vt 1.000000 0.677624
vn 0.0000 0.0000 1.0000
vn -0.0000 0.0166 -0.9999
vn -0.0000 -1.0000 -0.0000
vn 1.0000 0.0000 0.0000
vn -0.0000 1.0000 0.0000
vn -1.0000 -0.0000 -0.0000
vn -0.0123 -0.0000 -0.9999
vn 0.0123 0.0000 -0.9999
vn -0.0000 -0.0166 -0.9999
vn -0.0000 -0.0000 -1.0000
usemtl tablet
s off
f 1/1/1 2/2/1 3/3/1 4/4/1
f 8/5/2 7/6/2 12/7/2 11/8/2
f 1/9/3 5/10/3 6/11/3 2/12/3
f 2/13/4 6/14/4 7/15/4 3/16/4
f 3/17/5 7/18/5 8/19/5 4/20/5
f 5/21/6 1/22/6 4/23/6 8/24/6
f 9/25/4 11/26/4 15/27/4 13/28/4
f 5/29/7 8/5/7 11/8/7 9/30/7
f 7/6/8 6/31/8 10/32/8 12/7/8
f 6/31/9 5/29/9 9/30/9 10/32/9
f 13/33/10 15/34/10 16/35/10 14/36/10
f 12/37/6 10/38/6 14/39/6 16/40/6
f 10/41/5 9/42/5 13/43/5 14/44/5
f 11/45/3 12/46/3 16/47/3 15/48/3
